<?xml version="1.0" encoding="UTF-8" standalone="no"?>
<svg width="72px" height="72px" viewBox="0 0 72 72" version="1.1" xmlns="http://www.w3.org/2000/svg" xmlns:xlink="http://www.w3.org/1999/xlink">
    <!-- Generator: Sketch 46.2 (44496) - http://www.bohemiancoding.com/sketch -->
    <title>登录注册/user</title>
    <desc>Created with Sketch.</desc>
    <defs></defs>
    <g id="小图标" stroke="none" stroke-width="1" fill="none" fill-rule="evenodd">
        <g id="登录注册/user">
            <g id="Group">
                <g id="user" fill="#E1E1E1">
                    <circle id="Oval" cx="36" cy="36" r="36"></circle>
                </g>
                <g id="bee_96px" transform="translate(16.000000, 14.000000)" fill-rule="nonzero" fill="#FFFFFF">
                    <path d="M19.9482353,45.1294118 C19.1555146,45.1300718 18.3765463,44.9223469 17.6894118,44.5270588 L2.26352941,35.6235294 C0.867701205,34.8131831 0.00753783634,33.3222333 0.00470588235,31.7082353 L0.00470588235,13.8964706 C0.00851193355,12.2815053 0.870596404,10.7903322 2.26823529,9.98117647 L17.6847059,1.07294118 C19.0847026,0.268001379 20.8070621,0.268001379 22.2070588,1.07294118 L37.6329412,9.97647059 C39.0305801,10.7856263 39.8926645,12.2767994 39.8964706,13.8917647 L39.8964706,31.7035294 C39.8926645,33.3184947 39.0305801,34.8096678 37.6329412,35.6188235 L22.2070588,44.5270588 C21.5199243,44.9223469 20.740956,45.1300718 19.9482353,45.1294118 L19.9482353,45.1294118 Z M19.9482353,3.11058824 C19.6180653,3.10974395 19.2934811,3.19575876 19.0070588,3.36 L3.58588235,12.2682353 C3.00552855,12.6032972 2.64707078,13.2216368 2.64470588,13.8917647 L2.64470588,31.7035294 C2.64707078,32.3736573 3.00552855,32.991997 3.58588235,33.3270588 L19.0117647,42.2352941 C19.5941667,42.5715441 20.3117156,42.5715441 20.8941176,42.2352941 L36.2870588,33.3317647 C36.8674126,32.9967028 37.2258704,32.3783632 37.2282353,31.7082353 L37.2282353,13.8964706 C37.2258704,13.2263427 36.8674126,12.608003 36.2870588,12.2729412 L20.8847059,3.36470588 C20.5996672,3.20126054 20.2768101,3.11527348 19.9482353,3.11529412 L19.9482353,3.11058824 Z" id="Shape"></path>
                    <path d="M19.9058824,35.9764706 C18.9680978,35.9589133 18.0426802,35.7591254 17.1811765,35.3882353 L2.34352941,29.3882353 L2.26352941,29.3411765 C0.867701205,28.5308302 0.00753783634,27.0398803 0.00470588235,25.4258824 L0.00470588235,22.6352941 L2.64941176,22.6352941 L2.64941176,25.4211765 C2.65150569,26.0620752 2.97954824,26.6578714 3.52,27.0023529 L18.1694118,32.9317647 C19.2675054,33.4641316 20.5489652,33.4641316 21.6470588,32.9317647 L36.3811765,27.0023529 C36.9126505,26.6523599 37.2313075,26.0575336 37.2282353,25.4211765 L37.2282353,22.6352941 L39.8729412,22.6352941 L39.8729412,25.4211765 C39.8691351,27.0361418 39.0070507,28.5273149 37.6094118,29.3364706 L37.5294118,29.3835294 L22.64,35.3835294 C21.7758274,35.7569996 20.8471304,35.9584038 19.9058824,35.9764706 Z" id="Shape"></path>
                    <path d="M19.9058824,29.1905882 C18.9680839,29.1731506 18.0426435,28.9733578 17.1811765,28.6023529 L2.34352941,22.5976471 L2.26352941,22.5505882 C0.867701205,21.7402419 0.00753783634,20.2492921 0.00470588235,18.6352941 L0.00470588235,15.6847059 L2.64941176,15.6847059 L2.64941176,18.6352941 C2.65150569,19.2761929 2.97954824,19.8719891 3.52,20.2164706 L18.1694118,26.1458824 C19.2675054,26.6782493 20.5489652,26.6782493 21.6470588,26.1458824 L36.3811765,20.2211765 C36.9140559,19.8702717 37.2329043,19.2733168 37.2282353,18.6352941 L37.2282353,15.3411765 L39.8729412,15.3411765 L39.8729412,18.6352941 C39.8691351,20.2502594 39.0070507,21.7414326 37.6094118,22.5505882 L37.5294118,22.5976471 L22.64,28.6023529 C21.7755014,28.9742065 20.846817,29.1740095 19.9058824,29.1905882 L19.9058824,29.1905882 Z" id="Shape"></path>
                    <path d="M9.2,8.64470588 L9.2,8.64470588 C8.57050766,9.00985452 7.76437246,8.79992348 7.39294118,8.17411765 L5.31764706,4.56941176 C4.95249842,3.93991942 5.16242947,3.13378422 5.78823529,2.76235294 L5.78823529,2.76235294 C6.41772763,2.39720431 7.22386284,2.60713535 7.59529412,3.23294118 L9.67058824,6.82352941 C9.85050092,7.12724087 9.90199557,7.49011761 9.81368172,7.83189222 C9.72536787,8.17366684 9.50452392,8.46617184 9.2,8.64470588 Z" id="Shape"></path>
                    <path d="M30.7811765,8.64470588 L30.7811765,8.64470588 C31.4106688,9.00985452 32.216804,8.79992348 32.5882353,8.17411765 L34.6635294,4.58352941 C35.028678,3.95403707 34.818747,3.14790187 34.1929412,2.77647059 L34.1929412,2.77647059 C33.5634488,2.41132195 32.7573136,2.62125299 32.3858824,3.24705882 L30.3105882,6.83764706 C29.9454396,7.4671394 30.1553706,8.2732746 30.7811765,8.64470588 L30.7811765,8.64470588 Z" id="Shape"></path>
                </g>
            </g>
        </g>
    </g>
</svg>